<?xml version="1.0" encoding="UTF-8" standalone="no"?>
<!-- Generator: Adobe Illustrator 17.0.1, SVG Export Plug-In . SVG Version: 6.00 Build 0)  -->

<svg
   version="1.1"
   x="0px"
   y="0px"
   width="86px"
   height="86px"
   viewBox="0 0 86 86"
   enable-background="new 0 0 86 86"
   xml:space="preserve"
   id="svg6"
   sodipodi:docname="openhab-icon-launcher-template-grauohneverlauf.svg"
   inkscape:version="1.4.2 (f4327f4, 2025-05-13)"
   xmlns:inkscape="http://www.inkscape.org/namespaces/inkscape"
   xmlns:sodipodi="http://sodipodi.sourceforge.net/DTD/sodipodi-0.dtd"
   xmlns="http://www.w3.org/2000/svg"
   xmlns:svg="http://www.w3.org/2000/svg"><defs
   id="defs6" /><sodipodi:namedview
   id="namedview6"
   pagecolor="#ffffff"
   bordercolor="#000000"
   borderopacity="0.25"
   inkscape:showpageshadow="2"
   inkscape:pageopacity="0.0"
   inkscape:pagecheckerboard="0"
   inkscape:deskcolor="#d1d1d1"
   inkscape:zoom="9.3837209"
   inkscape:cx="43.053284"
   inkscape:cy="43"
   inkscape:window-width="1920"
   inkscape:window-height="1009"
   inkscape:window-x="-8"
   inkscape:window-y="-8"
   inkscape:window-maximized="1"
   inkscape:current-layer="Layer_1" />
<g
   id="Layer_2"
   display="none">
</g>
<g
   id="Layer_1">
	<linearGradient
   id="SVGID_1_"
   gradientUnits="userSpaceOnUse"
   x1="0.7169"
   y1="85.2831"
   x2="85.2831"
   y2="0.7169">
		<stop
   offset="0"
   style="stop-color:#ffffff;stop-opacity:1;"
   id="stop1" />
		<stop
   offset="0.9273743"
   style="stop-color:#9b9b9b;stop-opacity:1;"
   id="stop2" />
	</linearGradient>
	<path
   fill="url(#SVGID_1_)"
   d="M84.277,0.3H43C19.417,0.3,0.3,19.418,0.3,43v41.277c0,0.786,0.637,1.423,1.423,1.423H43   c23.583,0,42.7-19.118,42.7-42.7V1.723C85.7,0.937,85.063,0.3,84.277,0.3z"
   id="path2"
   style="fill:#e8e8e8;fill-opacity:1" />
	<g
   id="g3">
		
	</g><g
   id="logo"
   style="clip-rule:evenodd;display:inline;fill-rule:evenodd;stroke-linejoin:round;stroke-miterlimit:2"
   transform="matrix(0.33788579,0,0,0.35848469,10.569384,8.5919225)">
        <g
   id="logo_1_">
            <path
   d="m 9.932,137.039 75.11,-75.166 10.938,-10.938 10.939,10.938 55.445,55.445 -0.081,0.28 -1.094,3.221 -1.241,3.144 -1.395,3.07 -1.536,2.995 -1.397,2.424 -59.64,-59.64 c -26.023,26.043 -52.045,52.085 -78.068,78.127 -3.005,-4.426 -5.796,-8.984 -7.98,-13.9 z"
   style="display:inline;fill:#e64a19"
   id="path1" />
            <path
   d="m 95.981,0 c 52.868,0 95.981,43.115 95.981,95.983 0,52.864 -43.113,95.981 -95.981,95.981 -28.877,0 -54.838,-12.876 -72.458,-33.168 l 3.392,-3.404 2.462,-2.463 2.467,-2.47 2.468,-2.467 0.1,-0.1 c 14.803,17.527 36.918,28.695 61.569,28.695 44.397,0 80.606,-36.207 80.606,-80.604 0,-44.4 -36.209,-80.608 -80.606,-80.608 -44.398,0 -80.607,36.208 -80.607,80.608 0,5.979 0.665,11.805 1.912,17.421 l -5.348,5.359 -7.139,7.144 C 1.69,116.481 0,106.426 0,95.983 0,43.115 43.113,0 95.981,0 Z"
   style="fill:#474747"
   id="path2-0" />
        </g>
    </g>
	
	
	
</g>
</svg>
